<svg xmlns="http://www.w3.org/2000/svg" xmlns:xlink="http://www.w3.org/1999/xlink" version="1.1" x="0px" y="0px" viewBox="0 0 64 80" style="enable-background:new 0 0 64 64;" xml:space="preserve"><g><circle cx="16" cy="22" r="1"/><circle cx="24" cy="22" r="1"/><path d="M23,19h2v-0.171c0-2.091-0.814-4.057-2.293-5.536l-1.414,1.414C22.394,15.808,23,17.271,23,18.829V19z"/><path d="M41,42h-6.571c-2.731-2.414-6.021-4.085-9.58-4.851l-0.512-2.559c2.408-0.857,4.209-2.993,4.583-5.59H29   c1.863,0,3.42-1.286,3.862-3.014C32.909,25.989,32.953,26,33,26h2v1.764C35,28.997,36.003,30,37.236,30   c0.852,0,1.619-0.474,2-1.236L40.618,26H49c0.607,0,1.144-0.277,1.511-0.704C51.585,25.749,52.763,26,54,26c4.962,0,9-4.038,9-9   s-4.038-9-9-9c-3.113,0-5.861,1.59-7.478,4H34.594l0.72-3.359l-4.559,1.14C30.019,6.763,28.662,3.882,26.8,1.4l-0.631-0.842   L20,5.698l-6.168-5.14L13.2,1.4c-1.848,2.463-3.198,5.318-3.953,8.381L4.686,8.641l2.42,11.297C5.836,20.845,5,22.324,5,24v14   c0,1.379,0.561,2.63,1.468,3.535C3.083,44.716,1,49.215,1,54.142V55c0,4.411,3.589,8,8,8h32c1.103,0,2-0.897,2-2V44   C43,42.897,42.103,42,41,42z M18,41h-2c-0.551,0-1-0.449-1-1s0.449-1,1-1h2c0.551,0,1,0.449,1,1S18.551,41,18,41z M13.171,41   h-2.714c0.807-0.482,1.665-0.891,2.565-1.221C13.017,39.853,13,39.924,13,40C13,40.351,13.061,40.687,13.171,41z M16.586,43   l-1.249,1.249L14.802,43H16.586z M20,42.414l1.313,1.313L20.465,45h-0.93l-0.848-1.272L20,42.414z M19.744,47h0.512l2.4,8h-5.312   L19.744,47z M24.346,53.671l-2.252-7.508l0.662-0.994l2.582,2.582l1.68-3.919C27.012,43.889,27,43.943,27,44v9.145   C26.729,53.059,26.445,53,26.146,53C25.467,53,24.847,53.257,24.346,53.671z M27.513,42.676l0.948-2.211   c0.947,0.439,1.862,0.946,2.728,1.535H29C28.407,42,27.879,42.264,27.513,42.676z M26.606,39.715l-1.943,4.534l-3.14-3.14   l2.712-2.034C25.041,39.239,25.833,39.45,26.606,39.715z M22.896,37.578l-2.045,1.534C20.469,37.893,19.343,37,18,37h-0.78   l0.404-2.019C17.749,34.988,17.873,35,18,35h4c0.127,0,0.251-0.012,0.376-0.019L22.896,37.578z M29,27v-4c1.103,0,2,0.897,2,2   S30.103,27,29,27z M50.177,22.857C50.676,21.196,52.222,20,54,20s3.324,1.196,3.823,2.857C56.723,23.577,55.411,24,54,24   S51.277,23.577,50.177,22.857z M52,16c0-1.103,0.897-2,2-2s2,0.897,2,2s-0.897,2-2,2S52,17.103,52,16z M54,10c3.86,0,7,3.14,7,7   c0,1.687-0.6,3.236-1.597,4.445c-0.544-1.141-1.427-2.078-2.522-2.684C57.57,18.043,58,17.072,58,16c0-2.206-1.794-4-4-4   s-4,1.794-4,4c0,1.072,0.43,2.043,1.119,2.762c-1.095,0.606-1.977,1.542-2.522,2.684C47.6,20.236,47,18.687,47,17   C47,13.14,50.14,10,54,10z M45.525,14C45.191,14.94,45,15.947,45,17c0,2.826,1.312,5.349,3.356,7h-8.974l-1.934,3.869   C37.35,28.065,37,27.983,37,27.764V24h-4.142c-0.119-0.456-0.304-0.885-0.565-1.262L34.166,14H45.525z M7.314,11.359l3.46,0.865   L11,11.099c0.543-2.718,1.64-5.338,3.189-7.64L20,8.302l5.811-4.842c1.549,2.301,2.646,4.922,3.189,7.64l0.226,1.125l3.46-0.865   l-2.133,9.955C30.075,21.112,29.55,21,29,21v-2.171c0-2.091-0.814-4.057-2.293-5.536l-1.414,1.414   C26.394,15.808,27,17.271,27,18.829V28c0,2.757-2.243,5-5,5h-4c-2.757,0-5-2.243-5-5v-8c0-2.616,2.02-4.77,4.582-4.983   C18.5,16.076,19,17.414,19,18.829V19h2v-0.171c0-2.091-0.814-4.057-2.293-5.536L18.414,13H18c-3.519,0-6.432,2.613-6.92,6H10   c-0.352,0-0.694,0.038-1.026,0.108L7.314,11.359z M7,24c0-1.654,1.346-3,3-3h1v7c0,0.34,0.033,0.672,0.08,1H10   c-1.654,0-3-1.346-3-3V24z M7,38v-8.026C7.838,30.609,8.87,31,10,31h1.685c0.794,1.665,2.224,2.966,3.977,3.59l-0.507,2.536   c-2.66,0.491-5.078,1.582-7.138,3.108C7.398,39.684,7,38.891,7,38z M3,55v-0.858c0-4.535,1.99-8.664,5.202-11.49   C8.762,42.869,9.365,43,10,43h2.626l2.036,4.751l2.582-2.582l0.662,0.993L15.256,55H11v-6H9v6.586l-1.707,1.707l1.414,1.414   L10.414,57H23v4H9C5.691,61,3,58.309,3,55z M29,61h-4v-4.764l0.381-0.763C25.527,55.181,25.82,55,26.146,55   C26.617,55,27,55.383,27,55.854V57h2c1.103,0,2,0.897,2,2S30.103,61,29,61z M41,61h-8.537C32.805,60.411,33,59.728,33,59   c0-2.206-1.794-4-4-4V44h12V61z"/><path d="M15,26c0,2.757,2.243,5,5,5s5-2.243,5-5v-1H15V26z M22.829,27c-0.413,1.164-1.525,2-2.829,2s-2.416-0.836-2.829-2H22.829z"/><path d="M35,48c1.103,0,2,0.897,2,2s-0.897,2-2,2v2c2.206,0,4-1.794,4-4s-1.794-4-4-4s-4,1.794-4,4h2C33,48.897,33.897,48,35,48z"/><rect x="56" y="36" width="2" height="2"/><rect x="52" y="36" width="2" height="2"/><rect x="48" y="36" width="2" height="2"/><path d="M61,30H45c-1.103,0-2,0.897-2,2v10c0,1.103,0.897,2,2,2h4v1.586C49,46.917,50.083,48,51.414,48   c0.645,0,1.251-0.251,1.707-0.707L56.414,44H61c1.103,0,2-0.897,2-2V32C63,30.897,62.103,30,61,30z M61,42h-5.414l-3.879,3.879   C51.469,46.117,51,45.924,51,45.586V42h-6V32h16V42z"/></g><text x="0" y="79" fill="#000000" font-size="5px" font-weight="bold" font-family="'Helvetica Neue', Helvetica, Arial-Unicode, Arial, Sans-serif">Created by Eucalyp</text><text x="0" y="84" fill="#000000" font-size="5px" font-weight="bold" font-family="'Helvetica Neue', Helvetica, Arial-Unicode, Arial, Sans-serif">from the Noun Project</text></svg>