<?xml version="1.0" ?><svg viewBox="0 0 64 64" xmlns="http://www.w3.org/2000/svg"><defs><style>.cls-1{fill:none;stroke:#000;stroke-linejoin:round;stroke-width:2px;}</style></defs><title/><g data-name="Layer 18" id="Layer_18"><rect class="cls-1" height="52" width="38" x="13" y="6"/><polyline class="cls-1" points="15 6 19 2 45 2 49 6"/><polyline class="cls-1" points="15 58 15 62 21 62 21 58"/><polyline class="cls-1" points="43 58 43 62 49 62 49 58"/><rect class="cls-1" height="28" width="20" x="17" y="10"/><rect class="cls-1" height="16" width="6" x="41" y="10"/><line class="cls-1" x1="41" x2="43" y1="30" y2="30"/><line class="cls-1" x1="45" x2="47" y1="30" y2="30"/><line class="cls-1" x1="41" x2="43" y1="34" y2="34"/><line class="cls-1" x1="45" x2="47" y1="34" y2="34"/><line class="cls-1" x1="41" x2="43" y1="38" y2="38"/><line class="cls-1" x1="45" x2="47" y1="38" y2="38"/><line class="cls-1" x1="13" x2="51" y1="42" y2="42"/><line class="cls-1" x1="17" x2="37" y1="34" y2="34"/><polyline class="cls-1" points="21 34 21 30 25 30 25 34"/><polyline class="cls-1" points="29 34 29 30 33 30 33 34"/><line class="cls-1" x1="17" x2="37" y1="26" y2="26"/><polyline class="cls-1" points="21 26 21 22 25 22 25 26"/><polyline class="cls-1" points="29 26 29 22 33 22 33 26"/><line class="cls-1" x1="17" x2="37" y1="18" y2="18"/><polyline class="cls-1" points="21 18 21 14 25 14 25 18"/><polyline class="cls-1" points="29 18 29 14 33 14 33 18"/><rect class="cls-1" height="8" width="20" x="17" y="46"/><rect class="cls-1" height="8" width="6" x="41" y="46"/><polyline class="cls-1" points="17 46 21 50 33 50 37 46"/></g></svg>