<?xml version="1.0" encoding="UTF-8"?>
<svg xmlns="http://www.w3.org/2000/svg" id="Layer_1" data-name="Layer 1" viewBox="0 0 24 24" width="512" height="512"><path d="M24,7v-2h-2c0-1.66-1.34-3-3-3V0h-2V2h-2V0h-2V2h-2V0h-2V2h-2V0h-2V2c-1.66,0-3,1.34-3,3H0v2H2v2H0v2H2v2H0v2H2v2H0v2H2c0,1.66,1.34,3,3,3v2h2v-2h2v2h2v-2h2v2h2v-2h2v2h2v-2c1.66,0,3-1.34,3-3h2v-2h-2v-2h2v-2h-2v-2h2v-2h-2v-2h2Zm-4,12c0,.55-.45,1-1,1H5c-.55,0-1-.45-1-1V5c0-.55,.45-1,1-1h14c.55,0,1,.45,1,1v14Zm-13-2h10V7H7v10Zm2-8h6v6h-6v-6Z"/><path d="M24,7v-2h-2c0-1.66-1.34-3-3-3V0h-2V2h-2V0h-2V2h-2V0h-2V2h-2V0h-2V2c-1.66,0-3,1.34-3,3H0v2H2v2H0v2H2v2H0v2H2v2H0v2H2c0,1.66,1.34,3,3,3v2h2v-2h2v2h2v-2h2v2h2v-2h2v2h2v-2c1.66,0,3-1.34,3-3h2v-2h-2v-2h2v-2h-2v-2h2v-2h-2v-2h2Zm-4,12c0,.55-.45,1-1,1H5c-.55,0-1-.45-1-1V5c0-.55,.45-1,1-1h14c.55,0,1,.45,1,1v14Zm-13-2h10V7H7v10Zm2-8h6v6h-6v-6Z"/></svg>
