<?xml version="1.0" ?><svg data-name="Layer 1" id="Layer_1" viewBox="0 0 50 50" xmlns="http://www.w3.org/2000/svg"><title/><path d="M48.81,33.93a1,1,0,0,0-.81-.42H45.67a2.44,2.44,0,0,0,0-.48V11.18A2.48,2.48,0,0,0,43.24,8.7H6.76a2.48,2.48,0,0,0-2.48,2.48V33a2.44,2.44,0,0,0,0,.48H2a1,1,0,0,0-.95,1.33l1.24,3.67,0,.1A4.68,4.68,0,0,0,6.56,41.3H43.44a4.68,4.68,0,0,0,4.22-2.69l0-.1L49,34.84A1,1,0,0,0,48.81,33.93ZM6.28,33V11.18a.49.49,0,0,1,.48-.48H43.24a.49.49,0,0,1,.48.48V33a.48.48,0,0,1-.48.48H6.76A.48.48,0,0,1,6.28,33Zm15.11,2.48h7.22v.9H21.39Zm24.44,2.3a2.66,2.66,0,0,1-2.39,1.49H6.56a2.66,2.66,0,0,1-2.39-1.49l-.78-2.3h16v1.9a1,1,0,0,0,1,1h9.22a1,1,0,0,0,1-1v-1.9h16Z"/><path d="M24.69,13.91h.62a1,1,0,0,0,0-2h-.62a1,1,0,0,0,0,2Z"/></svg>