<?xml version="1.0" ?><svg data-name="Layer 1" id="Layer_1" viewBox="0 0 50 50" xmlns="http://www.w3.org/2000/svg"><title/><path d="M34.68,1H15.32a3,3,0,0,0-3,2.94V46.06a3,3,0,0,0,3,2.94H34.68a3,3,0,0,0,3-2.94V3.94A3,3,0,0,0,34.68,1Zm1,45.06a1,1,0,0,1-1,.94H15.32a1,1,0,0,1-1-.94V3.94a1,1,0,0,1,1-.94H34.68a1,1,0,0,1,1,.94Z"/><path d="M32.45,7.46H17.55a1,1,0,1,0,0,2h14.9a1,1,0,0,0,0-2Z"/><path d="M32.45,13.08H17.55a1,1,0,0,0,0,2h14.9a1,1,0,0,0,0-2Z"/><path d="M32.45,18.7H17.55a1,1,0,0,0,0,2h14.9a1,1,0,0,0,0-2Z"/><path d="M25,35.42a3.75,3.75,0,1,0,3.74,3.75A3.75,3.75,0,0,0,25,35.42Zm0,5.49a1.75,1.75,0,1,1,1.74-1.74A1.74,1.74,0,0,1,25,40.91Z"/></svg>