<?xml version="1.0" encoding="UTF-8"?>
<svg xmlns="http://www.w3.org/2000/svg" id="Layer_1" data-name="Layer 1" viewBox="0 0 24 24">
  <path d="M11,3c-2.757,0-5,2.243-5,5,0,.692,.23,1.815,.23,1.815l-.921,.507c-.808,.444-1.309,1.278-1.309,2.178,0,1.208,.86,2.217,2,2.449v3.025c-2.799-.254-5-2.611-5-5.475,0-1.647,.749-3.19,2.006-4.226-.004-.093-.006-.184-.006-.274C3,3.589,6.589,0,11,0c3.028,0,5.737,1.673,7.103,4.324,2.88,.904,4.897,3.595,4.897,6.676,0,3.164-2.112,5.842-5,6.705v-3.262c1.19-.694,2-1.97,2-3.444,0-1.916-1.364-3.567-3.244-3.926l-.808-.154-.304-.765c-.763-1.917-2.585-3.155-4.644-3.155Zm9.5,16c-.815,0-1.532,.396-1.989,1h-2.511v-6h-3v9h5.511c.456,.604,1.173,1,1.989,1,1.381,0,2.5-1.119,2.5-2.5s-1.119-2.5-2.5-2.5Zm-12.5,1h-2.511c-.456-.604-1.173-1-1.989-1-1.381,0-2.5,1.119-2.5,2.5s1.119,2.5,2.5,2.5c.815,0,1.532-.396,1.989-1h5.511V14h-3v6Z"/>
</svg>
