<?xml version="1.0" ?><svg viewBox="0 0 512 512" xmlns="http://www.w3.org/2000/svg"><g id="Cloud_technology"><path d="M126.9608,138.4815l-.3828,0a69.5485,69.5485,0,0,0-69.5469,70.08,6.5,6.5,0,0,0,6.4991,6.4522h.0488a6.5,6.5,0,0,0,6.4521-6.5479,56.5481,56.5481,0,0,1,56.5381-56.9838l.374,0h.0088a6.5,6.5,0,0,0,.0088-13Z"/><path d="M208.161,272.5968h94.76a12.1924,12.1924,0,0,1,12.1924,12.1924v94.76a12.1919,12.1919,0,0,1-12.1919,12.1919h-94.76a12.1924,12.1924,0,0,1-12.1924-12.1924v-94.76a12.1924,12.1924,0,0,1,12.1924-12.1924Z"/><path d="M385.3515,310.7887c56.91,0,103.5489-45.7486,103.9659-101.9815A102.7592,102.7592,0,0,0,386.5605,105.2691l-.2871.0005h-.0849a30.5148,30.5148,0,0,1-27.6026-17.5781,113.113,113.113,0,0,0-205.1719,0,30.5438,30.5438,0,0,1-27.67,17.5781l-.3047-.0005A102.759,102.759,0,0,0,22.6825,208.8072C23.1,265.04,69.7382,310.7887,126.6484,310.7887h39.6592v17.7661H101.1762a19.1992,19.1992,0,1,0,0,13h65.1314v13.5093h-40.501a15.9882,15.9882,0,0,0-15.9707,15.97v76.8683a19.1992,19.1992,0,1,0,13,0V371.0343a2.9741,2.9741,0,0,1,2.9707-2.97h40.501v21.8525a31.522,31.522,0,0,0,31.4863,31.4863H218.415c-.02.21-.0322.4221-.0322.6372l.009,27.521a19.2,19.2,0,1,0,12.9927.0042l-.0017-27.5252c0-.2151-.0117-.4275-.0322-.6372h49.5341c-.0205.21-.0322.4221-.0322.6372v27.5244a19.199,19.199,0,1,0,12.9927-.0028l.0073-27.5216c0-.2151-.0117-.4275-.0322-.6372H313.289a31.5221,31.5221,0,0,0,31.4864-31.4863V368.0641h34.5654a2.9741,2.9741,0,0,1,2.9707,2.97v76.8683a19.1992,19.1992,0,1,0,13,0V371.0343a15.9882,15.9882,0,0,0-15.9707-15.97H344.7754V341.5548h59.1958a19.1992,19.1992,0,1,0,0-13H344.7754V310.7887Zm-53.5761,79.1279a18.5073,18.5073,0,0,1-18.4864,18.4863H197.7939a18.5073,18.5073,0,0,1-18.4863-18.4863V274.4215a18.5073,18.5073,0,0,1,18.4863-18.4863H313.289a18.5073,18.5073,0,0,1,18.4864,18.4863Zm12.3217-121.9951a31.5384,31.5384,0,0,0-30.8081-24.9863H293.8525l-.0027-46.6993a19.1991,19.1991,0,1,0-12.9926.0008l-.0047,46.6985h-49.47l-.0073-46.6974a19.1995,19.1995,0,1,0-12.9927-.0028v46.7H197.7939a31.5381,31.5381,0,0,0-30.8091,24.9919c-.038-.0006-.0747-.0056-.1128-.0056H153.4a5.2822,5.2822,0,0,1-5.2764-5.2759v-30.82a19.1992,19.1992,0,1,0-13,0v30.82A18.2972,18.2972,0,0,0,153.4,280.9215h12.9072v16.8672H126.6484c-49.795,0-90.6016-39.9605-90.9659-89.0782a89.7587,89.7587,0,0,1,89.7569-90.4414l.251.0005h.1221A43.5567,43.5567,0,0,0,165.2031,93.172a100.1118,100.1118,0,0,1,181.5937,0A43.5583,43.5583,0,0,0,386.206,118.27h.1221l.2324-.0005a89.7587,89.7587,0,0,1,89.7569,90.4414c-.3643,49.1177-41.1709,89.0782-90.9659,89.0782H344.7754V280.9215h6.9716a18.2972,18.2972,0,0,0,18.2764-18.2759v-30.82a19.1992,19.1992,0,1,0-13,0v30.82a5.2822,5.2822,0,0,1-5.2764,5.2759Z"/></g></svg>